# xmcd CD database file generated by Grip 3.0.3
# 
# Track frame offsets:
#       150
#       21603
#       40405
#       59307
#       74177
#       91621
#       106893
#       127062
#       141473
#       164650
# 
# Disc length: 2439 seconds
# 
# Revision: 3
# Processed by: cddbd v1.4PL0 Copyright (c) Steve Scherf et al.
# Submitted via: Grip 3.0.3
# 
DISCID=9c09850a
DTITLE=Whitesnake - Starkers in Tokio
DYEAR=1998
DGENRE=Rock
TTITLE0=Sailing Ships
TTITLE1=Too Many Tears
TTITLE2=The Deeper Love
TTITLE3=Love ain't no Stranger
TTITLE4=Can't Go On
TTITLE5=Give me All Your Love
TTITLE6=Don't Fade Away
TTITLE7=Is this love?
TTITLE8=Here I Go Again
TTITLE9=Soldier of Fortune
EXTD=ID3G:   0
EXTT0=
EXTT1=
EXTT2=
EXTT3=
EXTT4=
EXTT5=
EXTT6=
EXTT7=
EXTT8=
EXTT9=
PLAYORDER=
